<svg width="23" height="19" viewBox="0 0 23 19" fill="none" xmlns="http://www.w3.org/2000/svg">
<path d="M3.33333 15.2216C3.33333 15.8666 3.57917 16.4852 4.01675 16.9413C4.45434 17.3975 5.04783 17.6537 5.66667 17.6537C6.2855 17.6537 6.879 17.3975 7.31658 16.9413C7.75417 16.4852 8 15.8666 8 15.2216C8 14.5765 7.75417 13.9579 7.31658 13.5018C6.879 13.0457 6.2855 12.7895 5.66667 12.7895C5.04783 12.7895 4.45434 13.0457 4.01675 13.5018C3.57917 13.9579 3.33333 14.5765 3.33333 15.2216ZM15 15.2216C15 15.8666 15.2458 16.4852 15.6834 16.9413C16.121 17.3975 16.7145 17.6537 17.3333 17.6537C17.9522 17.6537 18.5457 17.3975 18.9832 16.9413C19.4208 16.4852 19.6667 15.8666 19.6667 15.2216C19.6667 14.5765 19.4208 13.9579 18.9832 13.5018C18.5457 13.0457 17.9522 12.7895 17.3333 12.7895C16.7145 12.7895 16.121 13.0457 15.6834 13.5018C15.2458 13.9579 15 14.5765 15 15.2216Z" fill="#D9D9D9"/>
<path d="M3.33333 15.2216H1V7.92525L3.33333 1.84497H13.8333L18.5 7.92525H19.6667C20.2855 7.92525 20.879 8.18149 21.3166 8.6376C21.7542 9.09371 22 9.71232 22 10.3574V15.2216H19.6667M15 15.2216H8ZM1 7.92525H18.5ZM11.5 7.92525V1.84497Z" fill="#D9D9D9"/>
<path d="M3.33333 15.2216C3.33333 15.8666 3.57917 16.4852 4.01675 16.9413C4.45434 17.3975 5.04783 17.6537 5.66667 17.6537C6.2855 17.6537 6.879 17.3975 7.31658 16.9413C7.75417 16.4852 8 15.8666 8 15.2216M3.33333 15.2216C3.33333 14.5765 3.57917 13.9579 4.01675 13.5018C4.45434 13.0457 5.04783 12.7895 5.66667 12.7895C6.2855 12.7895 6.879 13.0457 7.31658 13.5018C7.75417 13.9579 8 14.5765 8 15.2216M3.33333 15.2216H1V7.92525M8 15.2216H15M15 15.2216C15 15.8666 15.2458 16.4852 15.6834 16.9413C16.121 17.3975 16.7145 17.6537 17.3333 17.6537C17.9522 17.6537 18.5457 17.3975 18.9832 16.9413C19.4208 16.4852 19.6667 15.8666 19.6667 15.2216M15 15.2216C15 14.5765 15.2458 13.9579 15.6834 13.5018C16.121 13.0457 16.7145 12.7895 17.3333 12.7895C17.9522 12.7895 18.5457 13.0457 18.9832 13.5018C19.4208 13.9579 19.6667 14.5765 19.6667 15.2216M19.6667 15.2216H22V10.3574C22 9.71232 21.7542 9.09371 21.3166 8.6376C20.879 8.18149 20.2855 7.92525 19.6667 7.92525H18.5M1 7.92525L3.33333 1.84497H13.8333L18.5 7.92525M1 7.92525H18.5M11.5 7.92525V1.84497" stroke="black" stroke-width="2" stroke-linecap="round" stroke-linejoin="round"/>
</svg>
