<svg width="17" height="21" viewBox="0 0 17 21" fill="none" xmlns="http://www.w3.org/2000/svg">
<path d="M9.24354 18.5205L0 9.88645V11.6503C0 12.1177 0.198278 12.5675 0.557067 12.8938L7.91225 19.7641C8.64871 20.452 9.84782 20.452 10.5843 19.7641L16.4477 14.2873C17.1841 13.5994 17.1841 12.4793 16.4477 11.7914L9.24354 18.5205Z" fill="black"/>
<path d="M7.91225 15.3544C8.28048 15.6984 8.76201 15.8748 9.24354 15.8748C9.72508 15.8748 10.2066 15.6984 10.5748 15.3544L16.4382 9.87763C17.1747 9.18972 17.1747 8.06967 16.4382 7.38176L9.08303 0.51152C8.73369 0.185205 8.25215 0 7.75174 0H1.88836C0.849764 0 0 0.793738 0 1.76386V7.24065C0 7.70808 0.198278 8.15786 0.557067 8.48418L7.91225 15.3544ZM1.88836 1.76386H7.75174L15.1069 8.6341L9.24354 14.1109L1.88836 7.24065V1.76386Z" fill="black"/>
<path d="M4.01264 4.85062C4.66446 4.85062 5.19287 4.35705 5.19287 3.7482C5.19287 3.13936 4.66446 2.64579 4.01264 2.64579C3.36082 2.64579 2.83241 3.13936 2.83241 3.7482C2.83241 4.35705 3.36082 4.85062 4.01264 4.85062Z" fill="black"/>
</svg>
