<svg width="19" height="22" viewBox="0 0 19 22" fill="none" xmlns="http://www.w3.org/2000/svg">
<path d="M12.875 19.8648C12.92 20.2023 12.8075 20.5623 12.5488 20.7986C12.4447 20.9029 12.3211 20.9856 12.185 21.0421C12.0489 21.0985 11.903 21.1276 11.7557 21.1276C11.6083 21.1276 11.4624 21.0985 11.3263 21.0421C11.1902 20.9856 11.0666 20.9029 10.9625 20.7986L6.45128 16.2873C6.32865 16.1674 6.2354 16.0206 6.17881 15.8587C6.12222 15.6967 6.10381 15.5239 6.12503 15.3536V9.5936L0.736275 2.69735C0.553585 2.46282 0.471151 2.16551 0.506987 1.87039C0.542823 1.57527 0.694015 1.30634 0.927526 1.12235C1.14128 0.964847 1.37753 0.874847 1.62503 0.874847H17.375C17.6225 0.874847 17.8588 0.964847 18.0725 1.12235C18.306 1.30634 18.4572 1.57527 18.4931 1.87039C18.5289 2.16551 18.4465 2.46282 18.2638 2.69735L12.875 9.5936V19.8648ZM3.92003 3.12485L8.37503 8.81735V15.0273L10.625 17.2773V8.8061L15.08 3.12485H3.92003Z" fill="white"/>
</svg>
