<svg width="239" height="30" viewBox="0 0 239 30" fill="none" xmlns="http://www.w3.org/2000/svg">
<path d="M71 0.493185V7.53318H59.88V11.4532H67.88V18.1332H59.88V28.8132H51V0.493185H71Z" fill="white"/>
<path d="M93.3678 24.5332H83.9278L82.5278 28.8132H73.2078L83.5678 0.493185H93.8078L104.128 28.8132H94.7678L93.3678 24.5332ZM91.2078 17.8532L88.6478 9.97318L86.0878 17.8532H91.2078Z" fill="white"/>
<path d="M118.425 29.0932C115.039 29.0932 112.239 28.3065 110.025 26.7332C107.839 25.1332 106.652 22.7999 106.465 19.7332H115.905C116.039 21.3599 116.759 22.1732 118.065 22.1732C118.545 22.1732 118.945 22.0665 119.265 21.8532C119.612 21.6132 119.785 21.2532 119.785 20.7732C119.785 20.1065 119.425 19.5732 118.705 19.1732C117.985 18.7465 116.865 18.2665 115.345 17.7332C113.532 17.0932 112.025 16.4665 110.825 15.8532C109.652 15.2399 108.639 14.3465 107.785 13.1732C106.932 11.9999 106.519 10.4932 106.545 8.65318C106.545 6.81318 107.012 5.25318 107.945 3.97318C108.905 2.66652 110.199 1.67985 111.825 1.01318C113.479 0.346517 115.332 0.0131836 117.385 0.0131836C120.852 0.0131836 123.599 0.813184 125.625 2.41318C127.679 4.01318 128.759 6.26652 128.865 9.17318H119.305C119.279 8.37318 119.079 7.79985 118.705 7.45318C118.332 7.10652 117.879 6.93318 117.345 6.93318C116.972 6.93318 116.665 7.06652 116.425 7.33318C116.185 7.57318 116.065 7.91985 116.065 8.37318C116.065 9.01318 116.412 9.54652 117.105 9.97318C117.825 10.3732 118.959 10.8665 120.505 11.4532C122.292 12.1199 123.759 12.7599 124.905 13.3732C126.079 13.9865 127.092 14.8399 127.945 15.9332C128.799 17.0265 129.225 18.3999 129.225 20.0532C129.225 21.7865 128.799 23.3465 127.945 24.7332C127.092 26.0932 125.852 27.1599 124.225 27.9332C122.599 28.7065 120.665 29.0932 118.425 29.0932Z" fill="white"/>
<path d="M159.745 0.493185V28.8132H150.865V17.7732H142.425V28.8132H133.545V0.493185H142.425V10.6932H150.865V0.493185H159.745Z" fill="white"/>
<path d="M173.821 0.493185V28.8132H164.941V0.493185H173.821Z" fill="white"/>
<path d="M192.831 29.0932C190.165 29.0932 187.711 28.4665 185.471 27.2132C183.258 25.9599 181.498 24.2265 180.191 22.0132C178.885 19.7999 178.231 17.3065 178.231 14.5332C178.231 11.7599 178.885 9.26652 180.191 7.05318C181.498 4.83985 183.258 3.11985 185.471 1.89318C187.711 0.63985 190.165 0.0131836 192.831 0.0131836C195.498 0.0131836 197.938 0.63985 200.151 1.89318C202.365 3.11985 204.111 4.83985 205.391 7.05318C206.698 9.26652 207.351 11.7599 207.351 14.5332C207.351 17.3065 206.698 19.7999 205.391 22.0132C204.111 24.2265 202.351 25.9599 200.111 27.2132C197.898 28.4665 195.471 29.0932 192.831 29.0932ZM192.831 20.8132C194.591 20.8132 195.951 20.2532 196.911 19.1332C197.871 17.9865 198.351 16.4532 198.351 14.5332C198.351 12.5865 197.871 11.0532 196.911 9.93318C195.951 8.78652 194.591 8.21318 192.831 8.21318C191.045 8.21318 189.671 8.78652 188.711 9.93318C187.751 11.0532 187.271 12.5865 187.271 14.5332C187.271 16.4532 187.751 17.9865 188.711 19.1332C189.671 20.2532 191.045 20.8132 192.831 20.8132Z" fill="white"/>
<path d="M238.915 28.8132H230.035L220.635 14.5732V28.8132H211.755V0.493185H220.635L230.035 14.9732V0.493185H238.915V28.8132Z" fill="white"/>
<path d="M30.908 4.42447C21.6603 1.45189 11.6085 1.20637 2.19683 3.72319C1.82272 3.80413 1.47049 3.95242 1.16117 4.15918C0.851842 4.36594 0.591766 4.62694 0.396466 4.92659C0.201167 5.22625 0.0746498 5.55841 0.0244681 5.90326C-0.0257137 6.2481 0.00146918 6.59856 0.104394 6.93369C0.619514 8.80292 1.37089 10.9505 2.27332 12.8977C2.28881 12.9432 2.31302 12.9213 2.31302 12.8758C2.1823 11.9626 2.95886 10.8096 4.48195 10.3902C11.8016 8.28389 19.6788 8.37819 26.9342 10.659C27.2018 10.7418 27.4851 10.7752 27.7672 10.7575C28.0494 10.7397 28.3247 10.671 28.577 10.5554C28.8294 10.4399 29.0535 10.2798 29.2364 10.0847C29.4192 9.88957 29.5569 9.66332 29.6415 9.41928C30.5439 6.79274 30.908 5.00932 30.9981 4.5628C31.0135 4.47963 30.9322 4.44724 30.908 4.42447ZM8.59613 10.2029C7.48746 10.4121 5.95469 10.7413 4.80438 11.0863C2.50474 11.8033 2.61125 14.3335 3.83611 15.1408C3.92616 14.6715 4.48195 14.0332 5.10164 13.8179C7.39741 13.0019 9.86263 12.5142 12.355 12.3128C11.0885 11.848 9.85295 11.1817 8.61259 10.202L8.59613 10.2029ZM26.9032 15.2686C23.5994 13.865 20.0179 13.0744 16.3704 12.9438C12.7229 12.8131 9.08342 13.3449 5.66711 14.5078C4.572 14.8816 3.88646 16.0863 4.572 17.2297C5.76959 19.1875 7.1287 21.0609 8.63777 22.8339C8.42087 22.1545 8.80431 20.8964 10.2761 20.4849C14.3467 19.3537 18.6177 19.8335 21.4567 20.8727C22.2584 21.1643 23.3933 20.9874 24.0294 20.1259C25.1143 18.6148 26.101 17.0479 26.9846 15.4332C27.0243 15.3605 26.9846 15.3062 26.9032 15.2686ZM20.3074 24.3389C19.1166 23.7952 18.0276 23.0859 17.0801 22.2368C16.6415 21.8402 15.9957 21.2702 15.315 20.5908C13.7609 20.5908 12.2523 20.7318 10.6392 21.1976C9.14127 21.6213 9.00087 23.1858 9.65639 24.0018C10.7651 25.2512 11.5426 25.9253 12.7829 27.0845C13.4403 27.6675 14.323 27.9959 15.2437 28C16.1645 28.004 17.0507 27.6835 17.7143 27.1064C18.6826 26.2309 19.2781 25.6469 20.3722 24.5254C20.4371 24.4658 20.4129 24.3617 20.3074 24.3389Z" fill="white"/>
</svg>
