<svg width="18" height="18" viewBox="0 0 18 18" fill="none" xmlns="http://www.w3.org/2000/svg">
<path d="M15.12 3.45748C14.3238 2.66099 13.2681 2.17673 12.1449 2.09277C11.0218 2.00881 9.90587 2.33073 9.00002 2.99998C8.04577 2.29021 6.85802 1.96837 5.67596 2.09926C4.49391 2.23016 3.40535 2.80407 2.6295 3.70542C1.85365 4.60678 1.44814 5.76862 1.49462 6.95699C1.54111 8.14536 2.03614 9.27198 2.88002 10.11L8.46752 15.6975C8.53725 15.7678 8.6202 15.8236 8.71159 15.8617C8.80299 15.8997 8.90101 15.9193 9.00002 15.9193C9.09903 15.9193 9.19706 15.8997 9.28846 15.8617C9.37985 15.8236 9.4628 15.7678 9.53252 15.6975L15.12 10.11C15.557 9.67327 15.9037 9.15474 16.1402 8.58401C16.3767 8.01327 16.4984 7.40153 16.4984 6.78373C16.4984 6.16593 16.3767 5.55419 16.1402 4.98346C15.9037 4.41273 15.557 3.89419 15.12 3.45748ZM14.0625 9.05248L9.00002 14.1075L3.93752 9.05248C3.4914 8.60451 3.1875 8.03477 3.06395 7.41474C2.94039 6.79471 3.00267 6.152 3.24299 5.56723C3.4833 4.98246 3.89095 4.48168 4.41478 4.1277C4.93862 3.77372 5.55532 3.58231 6.18752 3.57748C7.03211 3.57955 7.84135 3.91673 8.43752 4.51498C8.50725 4.58528 8.5902 4.64107 8.68159 4.67915C8.77299 4.71723 8.87101 4.73683 8.97002 4.73683C9.06903 4.73683 9.16706 4.71723 9.25846 4.67915C9.34985 4.64107 9.4328 4.58528 9.50252 4.51498C10.1163 3.98314 10.9091 3.70434 11.7207 3.735C12.5322 3.76566 13.3018 4.10349 13.8737 4.68012C14.4455 5.25675 14.777 6.02911 14.8009 6.84087C14.8248 7.65264 14.5394 8.44317 14.0025 9.05248H14.0625Z" fill="white"/>
</svg>
