<svg width="18" height="18" viewBox="0 0 18 18" fill="none" xmlns="http://www.w3.org/2000/svg">
<path d="M8.62501 13.5C11.625 13.5 14.22 11.835 15.555 9.375C14.22 6.915 11.625 5.25 8.62501 5.25C5.62501 5.25 3.03001 6.915 1.69501 9.375C3.03001 11.835 5.62501 13.5 8.62501 13.5ZM8.62501 4.5C12.045 4.5 15 6.4875 16.395 9.375C15 12.2625 12.045 14.25 8.62501 14.25C5.20501 14.25 2.25001 12.2625 0.855011 9.375C2.25001 6.4875 5.20501 4.5 8.62501 4.5ZM8.62501 6C10.5 6 12 7.5 12 9.375C12 11.25 10.5 12.75 8.62501 12.75C6.75001 12.75 5.25001 11.25 5.25001 9.375C5.25001 7.5 6.75001 6 8.62501 6ZM8.62501 6.75C7.92882 6.75 7.26114 7.02656 6.76886 7.51884C6.27657 8.01113 6.00001 8.67881 6.00001 9.375C6.00001 10.0712 6.27657 10.7389 6.76886 11.2312C7.26114 11.7234 7.92882 12 8.62501 12C9.3212 12 9.98888 11.7234 10.4812 11.2312C10.9734 10.7389 11.25 10.0712 11.25 9.375C11.25 8.67881 10.9734 8.01113 10.4812 7.51884C9.98888 7.02656 9.3212 6.75 8.62501 6.75Z" fill="white"/>
</svg>
