<svg width="71" height="76" viewBox="0 0 71 76" fill="none" xmlns="http://www.w3.org/2000/svg">
<path d="M67.0877 1.90188C68.8163 3.01586 69.661 3.61487 70.6336 5.44782C71.5063 10.6858 69.7212 13.977 66.8599 18.2327C66.474 18.8288 66.0895 19.4259 65.7062 20.0237C64.9394 21.2159 64.1655 22.403 63.3844 23.5859C62.1929 25.3982 61.0342 27.2288 59.8829 29.0667C59.1406 30.2518 58.3927 31.4331 57.6434 32.6137C53.0352 39.8862 48.4956 47.2013 43.9903 54.5379C42.636 56.74 41.2805 58.9413 39.9238 61.1418C39.6193 61.6362 39.3148 62.1305 39.001 62.6398C38.1627 63.997 37.32 65.3514 36.4755 66.7047C36.2358 67.0938 35.9962 67.4828 35.7492 67.8836C31.6333 74.4436 31.6333 74.4436 28.4727 75.716C25.1776 76.0348 23.8926 75.6869 21.1857 73.6339C19.9983 72.412 19.9983 72.412 18.8434 70.9989C18.6265 70.7336 18.4096 70.4683 18.1861 70.195C15.8754 67.3288 13.7137 64.3497 11.5467 61.3744C9.0132 57.9024 6.39182 54.5067 3.71876 51.1412C3.28674 50.5933 3.28674 50.5933 2.846 50.0343C2.59254 49.7157 2.33909 49.397 2.07795 49.0687C0.356279 46.6598 0.0863426 44.692 0.12555 41.7632C0.50654 39.474 1.73212 38.1251 3.4885 36.6781C4.7773 36.0337 5.75742 35.9776 7.19709 35.8974C7.90764 35.841 7.90764 35.841 8.63255 35.7835C12.961 36.7815 15.6746 41.2488 18.0952 44.6809C20.8593 48.5374 20.8593 48.5374 23.6886 52.3461C23.9821 52.7357 24.2756 53.1253 24.578 53.5267C24.8326 53.8067 25.0873 54.0867 25.3497 54.3753C25.6932 54.3753 26.0368 54.3753 26.3907 54.3753C27.0298 53.545 27.0298 53.545 27.6391 52.4457C27.8852 52.0272 28.1313 51.6087 28.3849 51.1775C28.6501 50.7191 28.9152 50.2607 29.1884 49.7883C29.7574 48.822 30.3274 47.8562 30.8984 46.891C31.189 46.3991 31.4796 45.9072 31.779 45.4004C33.0378 43.2942 34.3448 41.2204 35.6622 39.1505C36.1834 38.3298 36.7046 37.509 37.2257 36.6883C37.6274 36.0559 37.6274 36.0559 38.0373 35.4107C39.5861 32.9652 41.1217 30.5115 42.6565 28.0572C42.9801 27.54 43.3037 27.0228 43.6371 26.4899C45.4075 23.655 47.1662 20.8133 48.9107 17.9623C49.0954 17.6607 49.2801 17.3591 49.4705 17.0484C50.3604 15.5952 51.2487 14.1411 52.1338 12.6849C60.2789 -0.634699 60.2789 -0.634699 67.0877 1.90188Z" fill="#FAFCFC"/>
</svg>
