<svg width="10" height="7" viewBox="0 0 10 7" fill="none" xmlns="http://www.w3.org/2000/svg">
<path d="M2.98013 6.04437L8.48138 0.105649C8.54221 0.0399705 8.61388 0.00488192 8.69638 0.000383396C8.77888 -0.00411512 8.85451 0.0309734 8.92326 0.105649C8.99201 0.180324 9.02659 0.260623 9.02701 0.346545C9.02742 0.432466 8.99305 0.51254 8.92388 0.586765L3.33388 6.62603C3.23263 6.73534 3.11472 6.79 2.98013 6.79C2.84555 6.79 2.72763 6.73534 2.62638 6.62603L0.0951323 3.89318C0.034299 3.8275 0.00263235 3.74945 0.000132353 3.65903C-0.00236765 3.56861 0.030549 3.48629 0.0988823 3.41206C0.167216 3.33784 0.241591 3.30072 0.322007 3.30072C0.402424 3.30072 0.476799 3.33784 0.545132 3.41206L2.98013 6.04437Z" fill="black"/>
</svg>
