<svg width="80" height="63" viewBox="0 0 80 63" fill="none" xmlns="http://www.w3.org/2000/svg">
<path d="M73.6886 1.44585C73.164 0.544635 72.2571 0 71.2863 0H51.4286C46.702 0 42.8571 4.23896 42.8571 9.45V31.5C42.8571 36.711 46.702 40.95 51.4286 40.95H57.1011C54.4477 49.4219 52.182 53.4791 44.6429 56.9429C43.3846 57.5212 42.6729 58.9976 42.9409 60.4712C43.2086 61.9419 44.3806 63 45.7423 63H45.748C61.4763 62.9691 70.5109 56.0171 76.9171 39.0244C78.962 33.687 80 27.9748 80 22.05C80 12.9383 77.5 7.97643 73.6886 1.44585ZM28.4291 0H8.57143C3.84486 0 0 4.23896 0 9.45V31.5C0 36.711 3.84486 40.95 8.57143 40.95H14.244C11.5906 49.4219 9.32486 53.4791 1.78571 56.9429C0.527429 57.5212 -0.184286 58.9976 0.0837142 60.4712C0.351429 61.9419 1.52343 63 2.88514 63H2.89086C18.6191 62.9691 27.6537 56.0171 34.06 39.0244C36.1049 33.687 37.1429 27.9748 37.1429 22.05C37.1429 12.9383 34.6429 7.97643 30.8314 1.44585C30.3069 0.544635 29.4 0 28.4291 0Z" fill="#B1927E"/>
</svg>
