<svg width="16" height="20" viewBox="0 0 16 20" fill="none" xmlns="http://www.w3.org/2000/svg">
<path d="M14.7523 5.25509H11.8136V4.27551C11.8136 3.2363 11.4008 2.23966 10.6659 1.50483C9.93111 0.770001 8.93447 0.357178 7.89526 0.357178C6.85605 0.357178 5.85941 0.770001 5.12458 1.50483C4.38975 2.23966 3.97693 3.2363 3.97693 4.27551V5.25509H1.03818C0.778375 5.25509 0.529215 5.3583 0.345507 5.54201C0.1618 5.72572 0.0585938 5.97488 0.0585938 6.23468V17.0101C0.0585938 17.7895 0.368211 18.537 0.919334 19.0881C1.47046 19.6392 2.21794 19.9488 2.99734 19.9488H12.7932C13.5726 19.9488 14.3201 19.6392 14.8712 19.0881C15.4223 18.537 15.7319 17.7895 15.7319 17.0101V6.23468C15.7319 5.97488 15.6287 5.72572 15.445 5.54201C15.2613 5.3583 15.0121 5.25509 14.7523 5.25509ZM5.93609 4.27551C5.93609 3.75591 6.14251 3.25759 6.50992 2.89017C6.87734 2.52276 7.37566 2.31634 7.89526 2.31634C8.41486 2.31634 8.91319 2.52276 9.2806 2.89017C9.64802 3.25759 9.85443 3.75591 9.85443 4.27551V5.25509H5.93609V4.27551ZM13.7728 17.0101C13.7728 17.2699 13.6696 17.5191 13.4858 17.7028C13.3021 17.8865 13.053 17.9897 12.7932 17.9897H2.99734C2.73754 17.9897 2.48838 17.8865 2.30467 17.7028C2.12097 17.5191 2.01776 17.2699 2.01776 17.0101V7.21426H3.97693V8.19384C3.97693 8.45365 4.08013 8.70281 4.26384 8.88651C4.44755 9.07022 4.69671 9.17343 4.95651 9.17343C5.21631 9.17343 5.46547 9.07022 5.64918 8.88651C5.83289 8.70281 5.93609 8.45365 5.93609 8.19384V7.21426H9.85443V8.19384C9.85443 8.45365 9.95763 8.70281 10.1413 8.88651C10.325 9.07022 10.5742 9.17343 10.834 9.17343C11.0938 9.17343 11.343 9.07022 11.5267 8.88651C11.7104 8.70281 11.8136 8.45365 11.8136 8.19384V7.21426H13.7728V17.0101Z" fill="white"/>
</svg>
